<svg width="48" height="49" viewBox="0 0 48 49" fill="none" xmlns="http://www.w3.org/2000/svg">
<rect y="0.5" width="48" height="48" fill="#101112"/>
<path d="M26.2437 10.9211H32.8227V30.0109C32.8137 31.7995 32.3868 33.3633 31.542 34.7025C30.6971 36.0327 29.5287 37.0663 28.0368 37.8032C26.5538 38.5402 24.8372 38.9087 22.8869 38.9087C21.1612 38.9087 19.5929 38.6076 18.1818 38.0055C16.7797 37.4033 15.6608 36.4686 14.8249 35.2013C13.998 33.9341 13.5891 32.3118 13.5981 30.3345H20.2445C20.2714 31.0445 20.4063 31.6512 20.6489 32.1545C20.9006 32.6488 21.2466 33.0218 21.687 33.2735C22.1274 33.5251 22.6532 33.6509 23.2643 33.6509C23.9025 33.6509 24.4417 33.5161 24.8821 33.2465C25.3225 32.9679 25.6551 32.5589 25.8797 32.0197C26.1134 31.4804 26.2348 30.8108 26.2437 30.0109V10.9211Z" fill="white"/>
</svg>
